# xmcd
#
# Track frame offsets: 
#        150
#        26546
#        53844
#        75665
#        90961
#        113456
#        130625
#        148395
#        165489
#        188585
#        223829
#        241899
#        251794
#        269639
#        287709
#        307654
#
# Disc length: 4430 seconds
#
# Revision: 0
# Processed by: cddbd v1.5.2PL0 Copyright (c) Steve Scherf et al.
# Submitted via: ExactAudioCopy v1.0b3
#
DISCID=d6114c10
DTITLE=群星 - DTS ES 正品 试音机皇
DYEAR=2012
DGENRE=DTS ES
TTITLE0=阿姐鼓
TTITLE1=超爽低音
TTITLE2=尘鼓
TTITLE3=迟到
TTITLE4=大河之舞
TTITLE5=渡口
TTITLE6=父亲
TTITLE7=鼓王
TTITLE8=加州旅馆
TTITLE9=流浪者之歌
TTITLE10=男人的臂膀
TTITLE11=女声清唱
TTITLE12=山路十八弯
TTITLE13=往事如昔
TTITLE14=往事只能回味
TTITLE15=走过咖啡屋
EXTD=
EXTT0=
EXTT1=
EXTT2=
EXTT3=
EXTT4=
EXTT5=
EXTT6=
EXTT7=
EXTT8=
EXTT9=
EXTT10=
EXTT11=
EXTT12=
EXTT13=
EXTT14=
EXTT15=
PLAYORDER=
